REM DIRINDEX 1\2,1\3,1\4,1\5
REM DIRNAME cjc093,folder01,folder02,folder03,folder04
TITLE ""
FILE "Round-02-026-027.mp3" MP3
  TRACK 01 AUDIO
    TITLE "0:"
    INDEX 01 00:00:00
  TRACK 02 AUDIO
    TITLE "5:cjc093_0274"
    INDEX 01 00:00:03
  TRACK 03 AUDIO
    TITLE "0:"
    INDEX 01 00:01:48
  TRACK 04 AUDIO
    TITLE "2:cjc093_0275"
    INDEX 01 00:02:22
  TRACK 05 AUDIO
    TITLE "0:"
    INDEX 01 00:03:45
  TRACK 06 AUDIO
    TITLE "2:cjc093_0276"
    INDEX 01 00:04:01
  TRACK 07 AUDIO
    TITLE "0:"
    INDEX 01 00:05:59
  TRACK 08 AUDIO
    TITLE "3:cjc093_0277"
    INDEX 01 00:06:22
  TRACK 09 AUDIO
    TITLE "0:"
    INDEX 01 00:07:45
  TRACK 10 AUDIO
    TITLE "4:cjc093_0278"
    INDEX 01 00:07:62
  TRACK 11 AUDIO
    TITLE "0:"
    INDEX 01 00:10:47
  TRACK 12 AUDIO
    TITLE "2:cjc093_0279"
    INDEX 01 00:11:58
  TRACK 13 AUDIO
    TITLE "0:"
    INDEX 01 00:13:30
  TRACK 14 AUDIO
    TITLE "3:cjc093_0280"
    INDEX 01 00:13:69
  TRACK 15 AUDIO
    TITLE "0:"
    INDEX 01 00:15:42
  TRACK 16 AUDIO
    TITLE "4:cjc093_0281"
    INDEX 01 00:15:62
  TRACK 17 AUDIO
    TITLE "0:"
    INDEX 01 00:18:48
  TRACK 18 AUDIO
    TITLE "2:cjc093_0282"
    INDEX 01 00:19:58
  TRACK 19 AUDIO
    TITLE "0:"
    INDEX 01 00:20:53
  TRACK 20 AUDIO
    TITLE "2:cjc093_0283"
    INDEX 01 00:21:17
  TRACK 21 AUDIO
    TITLE "0:"
    INDEX 01 00:23:69
  TRACK 22 AUDIO
    TITLE "3:cjc093_0284"
    INDEX 01 00:24:33
  TRACK 23 AUDIO
    TITLE "0:"
    INDEX 01 00:26:42
  TRACK 24 AUDIO
    TITLE "4:cjc093_0285"
    INDEX 01 00:27:22
  TRACK 25 AUDIO
    TITLE "0:"
    INDEX 01 00:29:66
  TRACK 26 AUDIO
    TITLE "2:cjc093_0286"
    INDEX 01 00:31:00
  TRACK 27 AUDIO
    TITLE "0:"
    INDEX 01 00:32:05
  TRACK 28 AUDIO
    TITLE "2:cjc093_0287"
    INDEX 01 00:32:33
  TRACK 29 AUDIO
    TITLE "0:"
    INDEX 01 00:33:54
  TRACK 30 AUDIO
    TITLE "3:cjc093_0288"
    INDEX 01 00:34:06
  TRACK 31 AUDIO
    TITLE "0:"
    INDEX 01 00:35:12
  TRACK 32 AUDIO
    TITLE "4:cjc093_0289"
    INDEX 01 00:35:39
  TRACK 33 AUDIO
    TITLE "0:"
    INDEX 01 00:39:33
  TRACK 34 AUDIO
    TITLE "3:cjc093_0290"
    INDEX 01 00:40:38
  TRACK 35 AUDIO
    TITLE "0:"
    INDEX 01 00:41:36
  TRACK 36 AUDIO
    TITLE "4:cjc093_0291"
    INDEX 01 00:42:14
  TRACK 37 AUDIO
    TITLE "0:"
    INDEX 01 00:44:42
  TRACK 38 AUDIO
    TITLE "2:cjc093_0292"
    INDEX 01 00:45:55
  TRACK 39 AUDIO
    TITLE "0:"
    INDEX 01 00:46:56
  TRACK 40 AUDIO
    TITLE "2:cjc093_0293"
    INDEX 01 00:47:07
  TRACK 41 AUDIO
    TITLE "0:"
    INDEX 01 00:49:53
  TRACK 42 AUDIO
    TITLE "3:cjc093_0294"
    INDEX 01 00:50:05
  TRACK 43 AUDIO
    TITLE "0:"
    INDEX 01 00:51:44
  TRACK 44 AUDIO
    TITLE "4:cjc093_0295"
    INDEX 01 00:51:62
  TRACK 45 AUDIO
    TITLE "0:"
    INDEX 01 00:55:12
  TRACK 46 AUDIO
    TITLE "2:cjc093_0296"
    INDEX 01 00:56:22
  TRACK 47 AUDIO
    TITLE "0:"
    INDEX 01 00:57:74
  TRACK 48 AUDIO
    TITLE "3:cjc093_0297"
    INDEX 01 00:58:32
  TRACK 49 AUDIO
    TITLE "0:"
    INDEX 01 01:00:00
  TRACK 50 AUDIO
    TITLE "4:cjc093_0298"
    INDEX 01 01:00:23
  TRACK 51 AUDIO
    TITLE "0:"
    INDEX 01 01:03:02
  TRACK 52 AUDIO
    TITLE "2:cjc093_0299"
    INDEX 01 01:04:15
  TRACK 53 AUDIO
    TITLE "0:"
    INDEX 01 01:05:73
  TRACK 54 AUDIO
    TITLE "3:cjc093_0300"
    INDEX 01 01:06:26
  TRACK 55 AUDIO
    TITLE "0:"
    INDEX 01 01:08:09
  TRACK 56 AUDIO
    TITLE "4:cjc093_0301"
    INDEX 01 01:08:31
  TRACK 57 AUDIO
    TITLE "0:"
    INDEX 01 01:11:02
  TRACK 58 AUDIO
    TITLE "2:cjc093_0302"
    INDEX 01 01:12:13
  TRACK 59 AUDIO
    TITLE "0:"
    INDEX 01 01:13:14
  TRACK 60 AUDIO
    TITLE "2:cjc093_0303"
    INDEX 01 01:13:51
  TRACK 61 AUDIO
    TITLE "0:"
    INDEX 01 01:15:15
  TRACK 62 AUDIO
    TITLE "3:cjc093_0304"
    INDEX 01 01:15:44
  TRACK 63 AUDIO
    TITLE "0:"
    INDEX 01 01:17:63
  TRACK 64 AUDIO
    TITLE "4:cjc093_0305"
    INDEX 01 01:18:15
  TRACK 65 AUDIO
    TITLE "0:"
    INDEX 01 01:21:47
  TRACK 66 AUDIO
    TITLE "2:cjc093_0306"
    INDEX 01 01:22:60
  TRACK 67 AUDIO
    TITLE "0:"
    INDEX 01 01:24:41
  TRACK 68 AUDIO
    TITLE "3:cjc093_0307"
    INDEX 01 01:24:73
  TRACK 69 AUDIO
    TITLE "0:"
    INDEX 01 01:26:32
  TRACK 70 AUDIO
    TITLE "4:cjc093_0308"
    INDEX 01 01:26:60
  TRACK 71 AUDIO
    TITLE "0:"
    INDEX 01 01:30:44
  TRACK 72 AUDIO
    TITLE "2:cjc093_0309"
    INDEX 01 01:31:57
  TRACK 73 AUDIO
    TITLE "0:"
    INDEX 01 01:32:62
  TRACK 74 AUDIO
    TITLE "2:cjc093_0310"
    INDEX 01 01:33:25
  TRACK 75 AUDIO
    TITLE "0:"
    INDEX 01 01:35:41
  TRACK 76 AUDIO
    TITLE "3:cjc093_0311"
    INDEX 01 01:36:27
  TRACK 77 AUDIO
    TITLE "0:"
    INDEX 01 01:38:30
  TRACK 78 AUDIO
    TITLE "4:cjc093_0312"
    INDEX 01 01:38:71
  TRACK 79 AUDIO
    TITLE "0:"
    INDEX 01 01:42:14
  TRACK 80 AUDIO
    TITLE "3:cjc093_0313"
    INDEX 01 01:43:09
  TRACK 81 AUDIO
    TITLE "0:"
    INDEX 01 01:44:15
  TRACK 82 AUDIO
    TITLE "4:cjc093_0314"
    INDEX 01 01:44:44
  TRACK 83 AUDIO
    TITLE "0:"
    INDEX 01 01:47:66
  TRACK 84 AUDIO
    TITLE "3:cjc093_0315"
    INDEX 01 01:49:02
  TRACK 85 AUDIO
    TITLE "0:"
    INDEX 01 01:50:04
  TRACK 86 AUDIO
    TITLE "4:cjc093_0316"
    INDEX 01 01:50:15
  TRACK 87 AUDIO
    TITLE "0:"
    INDEX 01 01:52:63
